<?xml version="1.0" encoding="UTF-8" standalone="no"?><svg data-v-423bf9ae="" xmlns="http://www.w3.org/2000/svg" viewBox="0 0 468.8359363285376 60" class="font"><!----><!----><!----><g data-v-423bf9ae="" id="7895403a-11b2-4707-86ce-5e65daae5c32" fill="black" transform="matrix(5.291004774846683,0,0,5.291004774846683,-1.8518496618917482,-44.2327985780331)"><path d="M9.86 8.43L12.66 8.43L11.49 17.18L7.32 17.18L6.51 11.90L5.68 17.18L1.51 17.18L0.35 8.43L3.15 8.43L3.89 14.49L4.02 14.49L4.98 8.43L8.02 8.43L8.99 14.49L9.11 14.49L9.86 8.43ZM17.07 9.97L17.07 9.97Q18.73 9.97 19.51 10.56L19.51 10.56L19.51 10.56Q20.29 11.14 20.29 12.42L20.29 12.42L20.29 17.18L18.89 17.18L18.19 16.48L18.19 16.48Q17.65 16.93 17.05 17.16L17.05 17.16L17.05 17.16Q16.44 17.39 15.81 17.39L15.81 17.39L15.81 17.39Q14.53 17.39 13.94 16.81L13.94 16.81L13.94 16.81Q13.36 16.24 13.36 15.01L13.36 15.01L13.36 15.01Q13.36 14.15 13.72 13.65L13.72 13.65L13.72 13.65Q14.08 13.15 14.89 12.92L14.89 12.92L14.89 12.92Q15.69 12.70 17.07 12.70L17.07 12.70L17.49 12.70L17.49 12.07L17.49 12.07Q17.28 12.01 16.79 12.01L16.79 12.01L16.79 12.01Q15.48 12.01 14.01 12.38L14.01 12.38L13.68 10.44L13.68 10.44Q15.25 9.97 17.07 9.97L17.07 9.97ZM16.52 15.50L16.52 15.50Q17.07 15.50 17.28 15.39L17.28 15.39L17.28 15.39Q17.49 15.27 17.49 14.97L17.49 14.97L17.49 14.10L16.90 14.10L16.90 14.10Q16.35 14.10 16.14 14.22L16.14 14.22L16.14 14.22Q15.93 14.35 15.93 14.69L15.93 14.69L15.93 15.50L16.52 15.50ZM25.33 15.50L25.33 15.50Q26.39 15.65 26.96 15.88L26.96 15.88L26.96 15.88Q27.52 16.10 27.77 16.47L27.77 16.47L27.77 16.47Q28.01 16.84 28.01 17.46L28.01 17.46L28.01 17.46Q28.01 18.58 27.24 19.10L27.24 19.10L27.24 19.10Q26.46 19.63 24.79 19.63L24.79 19.63L24.79 19.63Q23.02 19.63 21.41 19.15L21.41 19.15L21.74 17.22L21.74 17.22Q23.03 17.58 24.23 17.58L24.23 17.58L24.23 17.58Q24.79 17.58 25.49 17.51L25.49 17.51L25.49 17.01L25.49 17.01Q24.18 16.91 23.61 16.75L23.61 16.75L23.61 16.75Q23.04 16.59 23.04 16.32L23.04 16.32L23.45 15.09L23.45 15.09Q22.33 14.91 21.80 14.29L21.80 14.29L21.80 14.29Q21.27 13.68 21.27 12.57L21.27 12.57L21.27 12.57Q21.27 11.23 22.06 10.60L22.06 10.60L22.06 10.60Q22.86 9.97 24.58 9.97L24.58 9.97L24.58 9.97Q25.30 9.97 25.93 10.08L25.93 10.08L27.19 9.11L28.52 10.39L27.73 11.41L27.73 11.41Q27.93 11.86 27.93 12.57L27.93 12.57L27.93 12.57Q27.93 13.78 27.31 14.40L27.31 14.40L27.31 14.40Q26.70 15.02 25.35 15.15L25.35 15.15L25.33 15.50ZM23.93 11.84L23.93 13.75L24.79 13.75L24.79 13.75Q25.06 13.75 25.16 13.64L25.16 13.64L25.16 13.64Q25.27 13.54 25.27 13.30L25.27 13.30L25.27 11.40L24.37 11.40L24.37 11.40Q24.12 11.40 24.02 11.49L24.02 11.49L24.02 11.49Q23.93 11.58 23.93 11.84L23.93 11.84ZM33.00 15.50L33.00 15.50Q34.06 15.65 34.63 15.88L34.63 15.88L34.63 15.88Q35.20 16.10 35.44 16.47L35.44 16.47L35.44 16.47Q35.69 16.84 35.69 17.46L35.69 17.46L35.69 17.46Q35.69 18.58 34.91 19.10L34.91 19.10L34.91 19.10Q34.13 19.63 32.47 19.63L32.47 19.63L32.47 19.63Q30.69 19.63 29.08 19.15L29.08 19.15L29.41 17.22L29.41 17.22Q30.70 17.58 31.91 17.58L31.91 17.58L31.91 17.58Q32.47 17.58 33.17 17.51L33.17 17.51L33.17 17.01L33.17 17.01Q31.85 16.91 31.28 16.75L31.28 16.75L31.28 16.75Q30.72 16.59 30.72 16.32L30.72 16.32L31.12 15.09L31.12 15.09Q30.00 14.91 29.47 14.29L29.47 14.29L29.47 14.29Q28.94 13.68 28.94 12.57L28.94 12.57L28.94 12.57Q28.94 11.23 29.74 10.60L29.74 10.60L29.74 10.60Q30.53 9.97 32.26 9.97L32.26 9.97L32.26 9.97Q32.97 9.97 33.60 10.08L33.60 10.08L34.86 9.11L36.19 10.39L35.41 11.41L35.41 11.41Q35.60 11.86 35.60 12.57L35.60 12.57L35.60 12.57Q35.60 13.78 34.99 14.40L34.99 14.40L34.99 14.40Q34.37 15.02 33.03 15.15L33.03 15.15L33.00 15.50ZM31.60 11.84L31.60 13.75L32.47 13.75L32.47 13.75Q32.73 13.75 32.84 13.64L32.84 13.64L32.84 13.64Q32.94 13.54 32.94 13.30L32.94 13.30L32.94 11.40L32.05 11.40L32.05 11.40Q31.79 11.40 31.70 11.49L31.70 11.49L31.70 11.49Q31.60 11.58 31.60 11.84L31.60 11.84ZM40.82 10.18L43.55 10.18L42.03 16.48L42.03 16.48Q41.73 17.71 41.29 18.40L41.29 18.40L41.29 18.40Q40.84 19.10 40.12 19.40L40.12 19.40L40.12 19.40Q39.40 19.70 38.23 19.70L38.23 19.70L38.23 19.70Q37.30 19.70 36.55 19.47L36.55 19.47L36.68 18.00L38.36 17.79L38.36 17.79Q38.75 17.74 38.95 17.63L38.95 17.63L38.95 17.63Q39.14 17.53 39.25 17.30L39.25 17.30L39.25 17.30Q39.35 17.08 39.44 16.62L39.44 16.62L39.47 16.48L37.83 16.48L36.30 10.18L39.03 10.18L39.86 14.03L40.00 14.03L40.82 10.18ZM52.07 17.18L49.03 17.18L47.84 14.64L47.10 14.64L47.10 17.18L44.30 17.18L44.30 8.43L48.36 8.43L48.36 8.43Q50.15 8.43 50.93 9.18L50.93 9.18L50.93 9.18Q51.72 9.94 51.72 11.66L51.72 11.66L51.72 11.66Q51.72 13.47 50.64 14.15L50.64 14.15L52.07 17.18ZM47.10 10.74L47.10 12.61L48.23 12.61L48.23 12.61Q48.54 12.61 48.66 12.49L48.66 12.49L48.66 12.49Q48.78 12.36 48.78 12.03L48.78 12.03L48.78 11.33L48.78 11.33Q48.78 10.99 48.66 10.86L48.66 10.86L48.66 10.86Q48.54 10.74 48.23 10.74L48.23 10.74L47.10 10.74ZM56.48 17.39L56.48 17.39Q54.57 17.39 53.67 16.48L53.67 16.48L53.67 16.48Q52.77 15.58 52.77 13.68L52.77 13.68L52.77 13.68Q52.77 11.76 53.66 10.86L53.66 10.86L53.66 10.86Q54.56 9.97 56.48 9.97L56.48 9.97L56.48 9.97Q58.39 9.97 59.29 10.86L59.29 10.86L59.29 10.86Q60.19 11.76 60.19 13.68L60.19 13.68L60.19 13.68Q60.19 15.60 59.29 16.49L59.29 16.49L59.29 16.49Q58.39 17.39 56.48 17.39L56.48 17.39ZM55.78 15.29L56.63 15.29L56.63 15.29Q56.94 15.29 57.06 15.20L57.06 15.20L57.06 15.20Q57.18 15.12 57.18 14.90L57.18 14.90L57.18 12.07L56.32 12.07L56.32 12.07Q56.01 12.07 55.90 12.15L55.90 12.15L55.90 12.15Q55.78 12.24 55.78 12.46L55.78 12.46L55.78 15.29ZM68.24 10.18L68.24 17.18L66.84 17.18L66.14 16.48L66.14 16.48Q64.90 17.39 63.34 17.39L63.34 17.39L63.34 17.39Q62.24 17.39 61.74 16.91L61.74 16.91L61.74 16.91Q61.24 16.42 61.24 15.36L61.24 15.36L61.24 10.18L64.04 10.18L64.04 15.50L64.89 15.50L64.89 15.50Q65.18 15.50 65.31 15.41L65.31 15.41L65.31 15.41Q65.44 15.32 65.44 15.11L65.44 15.11L65.44 10.18L68.24 10.18ZM73.68 11.98L72.72 11.98L72.72 15.18L72.72 15.18Q73.12 15.25 73.54 15.27L73.54 15.27L73.42 17.16L73.42 17.16Q72.48 17.39 71.72 17.39L71.72 17.39L71.72 17.39Q70.80 17.39 70.36 17.02L70.36 17.02L70.36 17.02Q69.92 16.65 69.92 15.86L69.92 15.86L69.92 11.98L69.22 11.98L69.22 10.18L69.92 10.18L69.92 9.06L72.72 8.36L72.72 10.18L73.68 10.18L73.68 11.98ZM78.44 15.34L78.44 15.34Q79.60 15.34 80.93 14.98L80.93 14.98L81.27 16.91L81.27 16.91Q79.83 17.39 78.16 17.39L78.16 17.39L78.16 17.39Q76.26 17.39 75.36 16.48L75.36 16.48L75.36 16.48Q74.45 15.58 74.45 13.68L74.45 13.68L74.45 13.68Q74.45 11.76 75.35 10.86L75.35 10.86L75.35 10.86Q76.24 9.97 78.16 9.97L78.16 9.97L78.16 9.97Q79.45 9.97 80.15 10.19L80.15 10.19L80.15 10.19Q80.85 10.40 81.15 10.91L81.15 10.91L81.15 10.91Q81.45 11.42 81.45 12.35L81.45 12.35L81.45 12.35Q81.45 13.20 81.06 13.71L81.06 13.71L81.06 13.71Q80.67 14.21 79.81 14.43L79.81 14.43L79.81 14.43Q78.95 14.66 77.46 14.66L77.46 14.66L77.46 15.29L77.46 15.29Q77.76 15.34 78.44 15.34L78.44 15.34ZM78.43 12.00L78.43 12.00Q77.88 12.00 77.67 12.11L77.67 12.11L77.67 12.11Q77.46 12.22 77.46 12.53L77.46 12.53L77.46 13.26L77.97 13.26L77.97 13.26Q78.51 13.26 78.72 13.13L78.72 13.13L78.72 13.13Q78.93 13.01 78.93 12.67L78.93 12.67L78.93 12.00L78.43 12.00ZM82.46 12.33L82.46 12.33Q82.46 11.12 83.22 10.54L83.22 10.54L83.22 10.54Q83.97 9.97 85.58 9.97L85.58 9.97L85.58 9.97Q87.19 9.97 88.61 10.28L88.61 10.28L88.28 12.21L88.28 12.21Q87.61 12.03 86.65 12.03L86.65 12.03L86.65 12.03Q85.92 12.03 85.47 12.17L85.47 12.17L85.47 12.67L85.47 12.67Q86.77 12.81 87.53 13.08L87.53 13.08L87.53 13.08Q88.28 13.34 88.62 13.80L88.62 13.80L88.62 13.80Q88.96 14.27 88.96 14.99L88.96 14.99L88.96 14.99Q88.96 16.24 88.11 16.81L88.11 16.81L88.11 16.81Q87.26 17.39 85.43 17.39L85.43 17.39L85.43 17.39Q84.62 17.39 83.80 17.26L83.80 17.26L83.80 17.26Q82.98 17.14 82.36 16.91L82.36 16.91L82.71 14.90L82.71 14.90Q83.71 15.33 84.95 15.33L84.95 15.33L84.95 15.33Q85.30 15.33 85.95 15.22L85.95 15.22L85.95 14.67L85.95 14.67Q84.56 14.53 83.82 14.29L83.82 14.29L83.82 14.29Q83.08 14.04 82.77 13.59L82.77 13.59L82.77 13.59Q82.46 13.13 82.46 12.33L82.46 12.33Z"></path></g><!----><!----></svg>